<?xml version="1.0" encoding="UTF-8" standalone="no"?>
<svg
   xmlns:dc="http://purl.org/dc/elements/1.1/"
   xmlns:cc="http://creativecommons.org/ns#"
   xmlns:rdf="http://www.w3.org/1999/02/22-rdf-syntax-ns#"
   xmlns:svg="http://www.w3.org/2000/svg"
   xmlns="http://www.w3.org/2000/svg"
   xmlns:sodipodi="http://sodipodi.sourceforge.net/DTD/sodipodi-0.dtd"
   xmlns:inkscape="http://www.inkscape.org/namespaces/inkscape"
   width="886pt"
   height="1129pt"
   viewBox="0 0 886 1129"
   version="1.1"
   id="svg3336"
   inkscape:version="0.91 r13725"
   sodipodi:docname="Polihack_Logotext.svg"
   inkscape:export-filename="C:\Users\Alex\Desktop\Polihack_Logotext.png"
   inkscape:export-xdpi="300"
   inkscape:export-ydpi="300">
  <metadata
     id="metadata3382">
    <rdf:RDF>
      <cc:Work
         rdf:about="">
        <dc:format>image/svg+xml</dc:format>
        <dc:type
           rdf:resource="http://purl.org/dc/dcmitype/StillImage" />
        <dc:title></dc:title>
      </cc:Work>
    </rdf:RDF>
  </metadata>
  <defs
     id="defs3380" />
  <sodipodi:namedview
     pagecolor="#ffffff"
     bordercolor="#666666"
     borderopacity="1"
     objecttolerance="10"
     gridtolerance="10"
     guidetolerance="10"
     inkscape:pageopacity="0"
     inkscape:pageshadow="2"
     inkscape:window-width="1600"
     inkscape:window-height="837"
     id="namedview3378"
     showgrid="false"
     inkscape:zoom="0.47333924"
     inkscape:cx="-166.66354"
     inkscape:cy="705.625"
     inkscape:window-x="-8"
     inkscape:window-y="-8"
     inkscape:window-maximized="1"
     inkscape:current-layer="svg3336" />
  <path
     d="m 375.6,27.59 c 2.32,-0.44 4.4,0.93 6.4,1.89 -3.44,6.74 0.37,14.12 -1.23,21.14 -1,4.99 -4.49,8.93 -6.89,13.3 8.89,5.42 14.25,15.06 16.26,25.05 0.38,11.09 -4.72,21.84 -12.9,29.18 -3.98,2.88 -8.7,4.55 -13.4,5.82 -3.81,1.01 -7.63,-0.44 -11.46,-0.22 -5.60086,3.266 -4.51321,25.18987 -6.66514,25.46787 -0.58,5.22 -2.16884,6.97631 -2.56884,12.21631 -1.01,12.89 -3.94778,27.13318 -5.94778,39.89318 -2.36,8.91 -5.95824,15.68264 -4.29824,24.89264 0.68,5.78 0.69,11.72 -0.53,17.44 5.09,-3.09 11.22,-2.74 16.76,-4.48 4.87,-1.06 9.78,-2.71 14.81,-2.37 8.67,2.12 17.23,4.92 24.98,9.42 -0.17666,0.82506 1.3751,1.07734 1.94,1.02 4.35,1.64 7.9,4.81 12.12,6.73 14.7,7.03 28.06,16.93 38.82,29.19 3.74,3.94 8.29,7.09 11.52,11.52 3.09,4.29 8,6.64 11.7,10.32 7.89,8.43 14.67,17.96 23.5,25.5 9.15,8.18 18.36,16.3 27.77,24.2 8.8,6.48 17.17,13.51 25.57,20.5 4.61,3.76 9.25,7.54 14.4,10.55 7.4,4.35 12.67,11.34 19.44,16.49 6.72,4.98 11.94,11.64 16.6,18.53 5.17,5.99 9.03,12.96 12.99,19.78 3.79,10.04 11.66,17.62 18.99,25.14 10.59,9.38 20.35,19.62 30.64,29.32 4.15,4.59 8.4,9.18 13.79,12.36 3.69,3.73 7.53,7.43 12.52,9.39 0.61381,2.25897 8.77968,6.873 10.54,6.24 3.33,2.38 6.57,4.89 9.46,7.81 9.41,9.13 21.01,15.54 30.96,24 4.45,4.57 9.8,8.16 14.15,12.84 9.41,9.61 19.38,18.71 27.69,29.32 2.96,3.67 6.07,7.24 9.64,10.34 3.24,2.78 5.01,6.82 8.13,9.72 3.41,3.38 5.29,8 8.98,11.13 2.51,2.28 4.51,5.04 6.42,7.83 3.59,5.25 8.55,9.35 12.29,14.49 3.14,4.47 7.18,8.18 10.68,12.37 4,4.71 9.2,8.14 13.95,12.03 7.46,5.82 13.15,13.65 21.07,18.91 2.96,1.87 2.51,6.75 -0.35,8.5 -5.18,-0.44 -8.72,-4.59 -12.62,-7.51 -4.78,-3.54 -7.92,-8.75 -12.6,-12.38 -6.98,-5.25 -14.44,-10.33 -19.39,-17.68 -3.65,-4.67 -9.01,-7.66 -12.49,-12.5 -6.57,-8.98 -15.4,-15.94 -22.28,-24.66 -4.73,-6.42 -11.38,-11.19 -15.33,-18.21 -7.56,-6.96 -13.06,-16.01 -21.59,-21.91 -3.46,-2.87 -6.22,-6.44 -9.35,-9.63 -8.15,-8.23 -16.62,-16.23 -26.24,-22.73 -10.42812,-9.22544 -14.77583,-11.45679 -25.9,-21.13 -8.22933,-6.74945 -14.75821,-9.89698 -18.93,-14.05 -5.55,-5.49 -12.08,-9.93 -16.88,-16.15 -6.87,-6.47 -12.99,-13.7 -20.14,-19.87 -5.47,-6.21 -12.12,-11.21 -17.72,-17.29 -7.41,-6.28 -11.43,-15.28 -16.7,-23.21 -7.74,-11.46 -14.05,-24.19 -24.75,-33.3 -6.14,-4.85 -11.13,-11.05 -17.79,-15.25 -7.3,-4.55 -13.67,-10.36 -20.61,-15.39 -4.81,-3.81 -8.75,-8.65 -13.96,-11.95 -5.45,-3.92 -11.54,-7.25 -15.73,-12.63 -2.78,-3.56 -7.3,-5.13 -10.2,-8.57 -7.40511,-7.63641 -13.60115,-12.96472 -21.22,-20.74 -11.6,-11.71 -23.46,-23.19 -34.95,-35.01 -5.08,-6.52 -12.97,-9.65 -19.2,-14.82 -6.26,-4.79 -12.14,-10.25 -19.29,-13.7 -5.79,-2.88 -11.41,-6.45 -17.91,-7.47 -6.08,-0.8 -11.94,-2.78 -18.06,-3.27 -5.76,-0.53 -11.45,-2.32 -17.27,-1.69 -2.9,0.21 -5.22,2.17 -7.91,3.01 -1.94,0.12 -3.85,-0.27 -5.76,-0.47 1.21,5.36 -1.39,10.44 -1.25,15.79 -1.2,9.19 -1.01,18.45 -1.8,27.67 3.84,-0.09 8.13,0.56 10.31,4.13 5.29,8.13 6.51,18.08 7.42,27.53 4.31,-1.97 6.82,-6.22 10.66,-8.84 6.78,-4.66 14.33,-8.62 22.6,-9.65 1.94,-0.29 3.95,-0.14 5.79,0.58 -2.85,5.68 -6.09,11.19 -8.77,16.96 -1.45,2.74 1.19,5.02 3.1,6.6 3.75,3.35 9.02,3.39 13.38,5.49 11.4403,5.25053 19.42204,7.52845 12.6,18.53 -1.01,-0.78 -2.84506,0.55265 -3.82506,-0.22735 -1.79,1.54 -2.81494,1.14735 -5.31494,1.21735 -9.58564,0.7655 -23.22866,5.60602 -29.40562,4.61 -5.81533,3.90731 -13.74213,1.25726 -19.59438,2.65 -11.23,0.74 -22.48,1.23 -33.72,1.92 -2.61,0.06 -5.22,-0.63 -7.82,-0.21 -7.4,1.29 -14.93,1.59 -22.43,1.69 -15.09902,1.96302 -22.76004,2.74597 -39.03,3.18 -3.57,-0.04 -6.61,2.53 -10.22,2.18 -7.98,-0.57 -15.81,1.4 -23.77,1.67 -6.63,1.35 -13.61,0.27 -20.06,2.61 -2.28,0.81 -4.62,1.58 -7.07,1.57 -8.82,0.41 -17.54,2 -26.07,4.21 -6.7,2.15 -13.77,2.46 -20.62,3.86 -4.45,1.01 -9.17,0.26 -13.48,1.91 -5.8,2.21 -12.08,2.44 -18.2,2.91 -0.21,1.14 -0.41,2.29 -0.62,3.44 9.07,2.16 18.76,1.64 27.47,5.27 4.66,2.02 9.83,2.17 14.61,3.8 4.4,1.46 9.39,2.25 13.81,0.41 4.04,-1.49 6.6,-5.16 9.95,-7.66 2.99,-1.75 6.22,-3.09 8.98,-5.22 1.86,1 4.07,1.74 5.32,3.55 2.56,5 5.16,10.36 4.38,16.15 1.67,4.48 2.61,9.22 4.73,13.54 3.38,7.4 4.64,15.57 4.43,23.66 -0.46,7.84 -5.82,14.73 -12.76,18.1 -4.65,2.13 -8.69,5.29 -13.03,7.95 -7.14,4 -15,6.62 -23,8.24 -0.15,1.61 -0.43,3.23 -0.35,4.86 2.08,4.04 5.19,7.52 6.81,11.81 1.94,4.18 1.6,9.02 0.35,13.35 -0.44,2.61 -1.76,5.37 -4.4,6.36 -2.88,1.08 -5.53,2.67 -7.95,4.57 2.45,4.75 1.61,10.15 2.98,15.15 -2.26,1.42 -4.43,2.99 -6.64,4.51 -2.62,1.85 -5.96,2.17 -8.7,3.76 -1.01,5.26 -1.34,11.35 2.32,15.71 5.23,6.53 13.79,8.75 20.53,13.26 5.17,3.53 11.43,4.91 16.62,8.43 9.66128,2.76594 15.00383,5.10978 11.03,14.81 -0.22,0.81 -1.11,0.98 -1.82,1.08 -7.84,1.02 -15.71,-0.55 -23.56,-0.25 -17.39,1.17 -34.93,-1.25 -52.26,0.98 3.68,4.26 9.06,6.45 12.91,10.51 3.88,4.01 8.55,7.16 12.36,11.24 3.33,3.37 5.99,7.33 9.32,10.7 3.14,3.36 7.94,3.94 12.24,4.69 4.21,0.52 8.56,2.01 12.76,0.63 6.15,-1.8 11.5,-5.77 15.73,-10.51 4.12,-4.56 9.88,-7.28 13.75,-12.09 2.21,-2.43 4.68,-4.77 5.84,-7.93 3.88,-8.19 7.06,-17.24 5.88,-26.44 -1.37,-5.51 -3.11,-11.3 -7.28,-15.38 -4.45,-4.72 -9.75,-8.6 -15.24,-12 -2.44,-1.64 -5.77,-2.45 -7.1,-5.3 -0.05,-2.47 0.89,-4.86 1.1,-7.31 4.9,-0.81 9.9,-0.43 14.79,-1.33 2.87,-0.57 6.08,-0.04 8.63,-1.73 7.48,-4.55 17.14,-4.94 23.72,-11.01 3.25,-2.45 2.47,-7.49 0.55,-10.54 -3.41,-3.09 -7.56,-5.25 -11.56,-7.46 -5.01,-2.65 -11.41,-3.26 -15.01,-8.07 -1.96,-2.39 -4.65,-4.12 -6.41,-6.67 -1,-3.02 -1.88,-6.17 -1.93,-9.36 1.98332,-11.80311 13.84915,-12.61982 21.5,-11.16 5.24,2.53 10.33,5.53 16.05,6.89 3.98,0.93 7.64,2.93 11.64,3.74 23.00895,5.32992 41.39641,10.61709 61.3,17.3 9.88,3.14 20.24,4.15 30.33,6.41 5.12,1.11 10.33,1.74 15.46,2.79 7.18925,0.10701 18.66398,3.61232 23.91,3.3 5.43,-0.09 10.87,0.55 16.29,0.2 6.15,-1.09 12.33,-2.34 18.14,-4.69 5.32,-0.44 10.62,-1.13 15.92,-1.78 9.71,-0.92 19.48,-0.24 29.18,0.61 2.77,0.22 5.07,1.98 7.39,3.36 -2.23,2.49 -4.68,5.19 -8.09,5.93 -5.88,1.02 -11.83,1.55 -17.77,2 -3.02,0.18 -4.35,3.34 -6.19,5.29 8.01,0.34 15.55,3.12 23.19,5.27 3.73,1.11 7.05,3.21 10.5,4.96 0.09,4.61 -0.06,10.11 -3.85,13.32 -6,2.25 -12.09,4.41 -18.38,5.77 -5.89,1.69 -12.1,1.58 -18.01,3.15 3.72,10.09 12.09,17.25 19.25,24.88 4.78,5.15 11.16,8.23 16.88,12.16 5.95,4.31 12.61,7.47 19.08,10.9 5.54,1.8 11.63,2.67 15.94,7.02 7.24,-1.17 14.82,1.45 21.84,-1.54 5.49,-2.74 11.74,-3.61 17.03,-6.77 8.87,-5.79 18.54,-10.44 26.73,-17.21 4.09,-4.75 9.26,-8.77 15.33,-10.57 3.89,-0.8 8.7,-1.79 11.83,1.4 3.91,3.71 6.96,9.04 6.51,14.6 0.15,7.83 -2.76,15.24 -4.58,22.74 -0.71,3.44 1.22,6.76 3.15,9.48 4.39,5.35 8.74,10.77 12.44,16.65 2.7,4.25 6.92,7.07 10.77,10.16 2.58,3.16 3.98,7.22 7.17,9.92 5.15,4.22 8.76,9.89 13.11,14.86 3.59,5.63 8.92,9.84 12.68,15.34 6.03,7.6 11.86,15.39 18.65,22.36 3.71,4.74 6.38,10.23 9.92,15.12 10.81,14.41 21.43,28.96 31.92,43.6 2.14,3.53 5.34,6.27 7.49,9.81 2.38,3.86 4.86,7.69 7.89,11.1 6.08,6.81 9.49,15.59 16.06,22.03 7.39,8.73 14.28,17.92 20.72,27.37 -8.2,10.54 -15.7,21.61 -23.88,32.18 -5.64,7.11 -10.97,14.45 -16.11,21.94 -18.6,24.56 -36.94,49.32 -55.35,74.02 -0.88,-2.93 -1.37,-6.13 -3.43,-8.51 -2.87,-3.57 -4.68,-7.83 -7.43,-11.47 -4.74,-6.54 -8.28,-13.82 -12.42,-20.72 -4.5,-5.32 -8.77,-10.9 -11.73,-17.25 -4.86,-6.93 -9.47,-14.06 -13.27,-21.64 -2.67,-4.55 -4.19,-9.63 -6.74,-14.22 -2.19,-4.03 -3.99,-8.24 -5.71,-12.48 -1.72,-4.38 -5.2,-7.82 -6.61,-12.33 -2.47,-7.21 -7.36,-13.15 -11.45,-19.45 -3.46,-4.31 -6.08,-9.2 -9.35,-13.64 -4.36,-6.08 -4.72,-13.84 -7.74,-20.52 -2.72,-5.87 -6.47,-11.22 -10.82,-15.98 -9.43,-11.53 -20.63,-21.43 -32.18,-30.75 -4.43,-2.74 -9.25,-4.82 -14.02,-6.85 -6.47,-1.08 -13.1,-4.2 -19.68,-2.23 -6.99,3.02 -14.83,7.42 -22.58,4.57 -3.36,-1.07 -8.11,-1.59 -8.8,-5.85 -0.49,-6.46 -0.19,-12.98 0.8,-19.38 0.68,-4.36 -2.38,-8 -4.75,-11.29 -3.51,-5.63 -10.46,-7.38 -14.84,-12.12 -4.11,-4.63 -10.81,-4.76 -15.69,-8.22 -7.46,-5.25 -16.74,-6.82 -24.27,-11.92 -10.05,-5.61 -20.19,-11.07 -30.24,-16.67 -6.57,-3.85 -14.28,-5.77 -19.98,-11.04 -3.71,-2.87 -6.21,-7.38 -10.83,-8.95 -3.53,-1.25 -7.26,-2 -10.97,-2.48 -3.36,0.58 -6.77,1.24 -9.96,2.45 -4.2,2.9 -6.05,8.11 -7.28,12.84 -0.4,6 -1.43,11.93 -2.01,17.91 0.54,6.84 0.04,13.75 0.87,20.57 1.7,7.53 2.12,15.42 5.27,22.57 1.66,3.8 3.56,7.55 6.18,10.78 4.99,5.25 12.05,7.52 18.35,10.72 6.89,3.45 14.58,4.6 21.83,7.02 5.04,1.51 10.43,-0.06 15.47,1.47 6.35,1.72 12.77,-0.73 19.19,-0.31 6.71,-1.48 13.63,-2.19 20.02,-4.87 5.21,-1.4 9.78,-4.31 14.65,-6.5 3.41,-1.67 7.64,-0.81 10.6,1.39 3.26,4.9 1.93,11.26 4.87,16.25 4.93,7 13.46,9.7 19.74,15.16 3.79,2.49 7.86,4.53 11.45,7.34 6.93,3.93 13.84,7.97 21.08,11.32 6.73,3.32 12.82,7.72 18.97,11.97 1.19,0.65 1.55,1.98 1.82,3.24 1.15,5.79 -2.43,11.45 -1.48,17.2 2.52,2.82 5.97,4.73 8.4,7.72 5.41,5.01 9.29,11.32 14.06,16.89 2.62,3.1 4.6,6.68 7.3,9.72 5.23,5.88 8.94,12.92 11.96,20.14 2.84,5.43 6.8,10.46 11.91,13.94 3.34,2.09 8.51,2.16 10.16,6.31 -0.94,4.6 -4.45,9.24 -2.23,14.02 2.1,3.75 6.13,5.79 9.39,8.39 4.09,3.21 8.8,5.91 11.88,10.21 1.71,2.77 -1.76,5.94 0.02,8.72 3.09,6.67 10.15,9.89 16.46,12.79 5.98,4.96 11.91,10.04 17.45,15.5 5,5.44 8.1,12.39 13.54,17.48 1.61,1.92 4.72,4.64 2.53,7.24 -4.9,7.07 -10.26,13.81 -15.32,20.77 -5.84,7.24 -10.76,15.17 -16.67,22.35 -5.31,7 -10.55,14.06 -15.85,21.06 -2.4,3 -2.68,7.35 -5.72,9.84 -1.84,0.39 -2.88,-1.39 -3.38,-2.83 -1.79,-4.48 -4.02,-8.77 -5.76,-13.26 -1.73,-5.29 -5.87,-9.3 -7.78,-14.51 -3.63,-8.99 -8.12,-17.57 -12.69,-26.09 -7.46777,-15.36828 -13.69955,-28.24395 -21.83,-42.08 -3.83,-6.73 -9.38,-12.31 -12.86,-19.24 -2.62,-5.04 -6.11,-9.68 -7.67,-15.2 -17.34949,-19.15008 -22.99337,-30.41673 -32.97,-46.11 -2.14,-3.5 -4.73,-6.68 -7.07,-10.02 -4.73,-6.64 -8.49,-13.91 -11.74,-21.36 -2.56,-4.57 -5.49,-8.95 -7.17,-13.95 -3.23,-6.55 -7.71,-12.74 -13.78,-16.92 -4.03,-2.93 -7.45,-6.63 -11.66,-9.29 -5.56,-3.55 -12.02,-5.19 -17.93,-8.02 -9.39,-3.77 -18.52,-8.81 -28.77,-9.71 -17.98602,-3.817 -34.53943,-7.13701 -50.49,-12.25 -6.09,-1.68 -10.16,-7.06 -16.14,-9.03 -6.88,-3.82 -14.29,-7.05 -22.19,-7.83 -3.06,0.41 -6.31,2.28 -7.09,5.48 -0.46,2.27 -0.28,4.6 -0.37,6.91 0.1,6.55 -3.77,12.35 -3.92,18.9 -0.43,10.69 0.07,21.39 -0.09,32.08 0.09,4.46 -2.73,8.38 -2.54,12.87 0.08,9.03 0.42,18.07 -0.12,27.1 -0.29,3.7 0.45,7.39 2,10.75 9.75,-1.22 20.24,-2.61 29.43,1.82 7.79,2.64 15.3,7.34 19.34,14.73 4.08,9.49 3.94,20.7 -0.24,30.14 -2.11,5.2 -5.87,9.44 -8.9,14.1 -5.72,8.44 -13.22,15.78 -22.22,20.64 0.99,3.22 1.81,6.71 4.4,9.08 2.01,2.42 5.43,4.23 5.49,7.75 0.74,6.88 1.03,13.83 2.24,20.67 0.29,2.42 -0.48024,5.8452 1.29976,7.0352 -2.59,2.39 -1.43976,3.2348 -5.26976,3.5748 -12.84,1.97 -25.83,2.94 -38.56,5.64 -15.09,3.86 -30.78,2.49 -46.18,2.77 -14.85363,-0.1294 -26.76082,1.2008 -40.68,1.1005 -11.93,0.78 -23.88,1.36 -35.83,1.47 -6.78,0.46 -13.46,1.96 -20.27,2.12 -7.61,0.15 -15.24,1.85 -22.85,0.72 -3.96,-1.25 -7.88,-4.32 -8.52,-8.66 -2.4,-7.52 1.45,-15.24 -0.32,-22.81 -0.16,-1.98 -1.26,-4.34 0.38,-5.97 5.02,-5.77 10.09,-11.55 15.86,-16.59 -7.57,-6.11 -13.25,-14.58 -15.47,-24.07 -0.68,-6.34 -2.07,-12.66 -1.66,-19.07 0.37,-11.29 6.78,-22.59 17.11,-27.58 9.27,-4.61 19.47,-7.61 29.88,-7.85 -0.79,-5.54 -3.24,-11.42 -0.69,-16.85 2.71,-5.88 4.75,-12.19 4.7,-18.72 3.42606,-28.48971 3.55077,-57.98226 3.35,-85.84 0.89089,-15.11022 2.17155,-31.1887 2.42,-45.11 0.20834,-14.36614 3.12042,-38.88853 -11.64,-45.29 -0.97,-0.39 0.16265,-0.62506 -0.78735,-0.46506 -0.21,-0.98 -1.93265,-1.43494 -2.79265,-2.13494 -3.58,-3.01 -7.78,-5.15 -12.09,-6.88 -29.70567,-14.68929 -60.376011,-34.12681 -85.53,-50.44 -5.91,-3.64 -10.69,-8.78 -14.88,-14.25 -9.911924,-24.11642 -10.154194,-27.70317 -17.34,-50.31 -0.91,0.42 -0.11988,-4.21036 -1.02988,-3.77036 0,0 -0.28012,-6.75964 -1.86012,-12.45964 -1.4570998,-9.22406 0.630614,-24.41847 3.66,-32.12 21.54715,-47.16377 40.731915,-95.87472 58.09,-140.93 4.51,-8.01 7.74,-16.65 12.3,-24.65 3.59,-6.2 5.68,-13.24 10.24,-18.86 3.47,-4.14 4.51,-9.74 8.09,-13.8 2.49,-2.84 4.87,-5.8 7.55,-8.47 3.57,-3.58 8.44,-5.49 11.91,-9.18 4.86,-5.37 10.85,-10.14 17.97,-12 5.43,-1.31 10.55,-4.19 16.22,-4.25 5.83,0.23 11.55,-0.97 17.33,-1.51 4.88,-0.47 9.44,-2.61 14.36,-2.74 5.67,-0.13 11.16,-1.97 16.84,-1.86 3.57417,-37.5376 17.86534,-74.55749 18.81,-110.92 0.06,-4.62 1.22,-9.33 -0.19,-13.86 -0.57,-2.82 -1.94,-5.69 -1.18,-8.6 0.62,-3.18 1.47,-6.4 0.84,-9.65 -5.82,2.35 -11.85,0.05 -17.68,-0.92 -3.32,-0.55 -5.88,-2.88 -8.65,-4.59 -2.41,-1.6 -5.13,-2.89 -6.94,-5.22 -0.66,-6.04 -1.03,-12.37 0.95,-18.23 1.98,-5.86 3.66,-12.32 8.57,-16.51 4.43296,-3.93365 10.07101,-8.143689 14.82,-7.66 -4.04,-4.72 -7.86,-9.78 -9.63,-15.84 -0.82,-1.28 -2.52,-2.46 -1.77,-4.16 1.45,-6.03 2.38,-12.19 4.43,-18.06 9.95,1.23 19.97,-0.34 29.92,-0.85 5,-0.05 9.97,-0.64 14.97,-0.85 18.68,0.3 37.28,-2.26 55.94,-2.75 13.93,0.71 27.88,0.21 41.82,0.32 8.27,-0.66 16.62,-0.31 24.82,-1.69 z"
     id="path3340"
     inkscape:connector-curvature="0"
     style="fill:#0a0a0a"
     sodipodi:nodetypes="cccccccccccccccccccccccccccccccccccccccccccccccccccccccccccccccccccccccccccccccccccccccccccccccccccccccccccccccccccccccsccccccccccccccccccccccccccccccccccccccccccccccccccccccccccccccccccccccccccccccccccccccccccccccccccccccccccccccccccccccccccccccccccccccccccccccccccccccccccccccccccccccccccccccccccccccccccccccccccccccccccccccccccccccccccccccccsccccccccccc" />
  <path
     fill="#fcfcfc"
     d=" M 297.99 37.31 C 314.46 34.73 331.02 38.76 347.54 37.28 C 356.28 36.12 365.12 36.40 373.91 36.35 C 374.10 38.88 374.20 41.42 374.19 43.95 C 365.21 44.96 356.12 46.16 347.11 44.76 C 342.31 44.51 337.63 46.26 332.80 45.57 C 324.29 44.92 315.74 45.73 307.26 44.72 C 303.32 44.30 299.41 45.22 295.48 45.36 C 282.92 46.02 270.29 45.59 257.80 47.26 C 249.48 47.54 241.31 49.45 232.98 49.52 C 225.52 49.59 218.10 50.34 210.67 50.81 C 210.65 47.25 211.24 43.74 212.02 40.28 C 221.36 40.24 230.68 39.41 240.03 39.58 C 245.08 39.80 250.03 38.41 255.07 38.50 C 269.39 39.26 283.68 37.58 297.99 37.31 Z"
     id="path3342" />
  <path
     fill="#fcfcfc"
     d=" M 355.04 53.18 C 360.21 52.78 365.31 51.69 370.50 51.43 C 370.70 52.02 370.90 52.60 371.11 53.18 C 368.26 56.46 365.58 59.90 363.08 63.45 C 355.77 62.44 348.37 62.19 341.00 62.32 C 336.68 62.50 332.43 61.09 328.12 61.56 C 318.92 63.07 309.54 61.63 300.32 62.89 C 294.58 63.85 288.79 63.32 283.05 62.72 C 268.03 63.31 253.04 64.88 237.98 65.20 C 232.69 65.33 227.71 67.87 222.41 67.61 C 218.80 65.31 215.87 62.03 213.74 58.34 C 226.33 57.03 238.98 56.40 251.58 55.21 C 269.88 51.94 288.53 53.31 306.99 52.23 C 314.23 52.44 321.48 52.60 328.73 52.60 C 337.49 52.99 346.26 53.69 355.04 53.18 Z"
     id="path3344" />
  <path
     d="m 336.97,68.91 c 6,-0.89 11.97,0.61 17.96,0.96 6.95,1.62 14.54,2.41 20.45,6.75 3.82,3.9 6.35,9.19 7.36,14.52 -0.49,8.48 -5.05,16.67 -11.99,21.55 -4.97,2.07 -10.12,5.2 -15.72,4.19 -8.61,-1.81 -17.66,-4.34 -23.77,-11.11 -1.88,-2.31 -4.63,-5.24 -3.18,-8.43 1.06,-3.04 2.63,-6 4.94,-8.26 5.86,-3.95 13.22,-2.85 19.88,-2.76 4.4,0.88 8.17,3.57 11.98,5.81 -1.01,2.19 -1.15,5.58 -4,6.16 -2.35,0.63 -6.14,-0.5 -6.11,-3.36 -0.26,-2.41 -0.14,-4.84 -0.11,-7.26 -3.43,0.05 -7.01,-0.6 -10.32,0.46 -2.93,3.43 -2.43,8.43 -1.98,12.61 1.59,4.24 4.51,9.35 9.68,9.34 6.7,0.22 14.91,2.65 20.15,-2.89 3.21,-3.76 7.13,-7.82 7.04,-13.13 0.03,-3.26 0.48,-6.94 -1.69,-9.67 -2.94,-3.57 -7.29,-5.5 -11.25,-7.68 -8.44,-4.21 -18,-4.42 -27.12,-5.94 -10.39,-0.52 -21.49749,5.762422 -31.87749,4.982422 -6.13,-0.47 -65.61417,0.357533 -71.46417,-2.442467 6.76,-0.63 67.37166,-2.859955 74.14166,-3.299955 8.99,-0.73 18.02,-0.25 27,-1.1 z"
     id="path3346"
     inkscape:connector-curvature="0"
     style="fill:#fcfcfc"
     sodipodi:nodetypes="cccccccccccccccccccccccccc" />
  <path
     d="m 229.56,74.015022 c 24.22989,-2.017627 38.21608,0.75798 10.82493,2.493722 C 235.93493,77.378744 226.9,77.4 223.03,79.99 c -5.25,2.84 -11.68,5.67 -13.19,12.1 -0.66,5.04 -1.08,10.75 1.9,15.18 3.07,4.03 8.34,5.72 13.26,5.34 4.76,-0.03 10.94,-0.4 13.29,-5.32 2.57,-3.74 3.1,-8.48 2.27,-12.86 -1.97,-2.98 -6.05,-1.96 -9.04,-1.78 -3.43,0.27 -1.68,5.52 -4.08,7.1 -1.81,1.5 -3.89,-0.38 -5.74,-0.79 0.83,-1.81 1.25,-3.99 2.78,-5.37 6.23,-3.98 13.27,-6.72 20.72,-7.1 2.26,3.12 5.12,6.38 5.2,10.44 -0.5,3.61 -1.9,7.32 -4.87,9.62 -5.01,4.32 -10.63,9.03 -17.55,9.39 -4.75,0.15 -9.12,3.11 -13.94,1.99 -5.21,-1 -11.1,-1.98 -14.77,-6.18 -2.84,-3.15 -1.8,-7.65 -1.67,-11.47 0.17,-3.89 2.18,-7.26 3.98,-10.58 3.1,-6.23 9.67,-9.72 15.88,-12.18 3.81,-1.72 8.08,-2.704978 12.1,-3.504978 z"
     id="path3348"
     inkscape:connector-curvature="0"
     style="fill:#fcfcfc"
     sodipodi:nodetypes="cccccccccccccccccccccc" />
  <path
     fill="#fcfcfc"
     d=" M 284.60 83.02 C 288.85 83.99 293.24 83.59 297.51 82.93 C 305.80 81.80 314.09 83.74 322.40 83.03 C 320.44 85.77 317.72 88.08 316.49 91.27 C 316.04 96.67 316.18 102.11 316.50 107.52 C 307.65 107.52 298.87 105.95 290.00 106.38 C 280.60 105.11 271.12 105.10 261.66 105.23 C 261.87 98.57 261.44 91.91 261.35 85.27 C 262.93 83.96 264.96 83.37 266.98 83.21 C 272.82 82.69 278.80 81.55 284.60 83.02 Z"
     id="path3350" />
  <path
     fill="#fcfcfc"
     d=" M 319.89 164.90 C 321.69 163.33 325.39 160.93 326.86 164.11 C 331.72 170.56 328.06 178.76 327.82 185.97 C 328.14 195.42 324.78 204.53 325.18 213.99 C 324.15 225.29 324.30 236.67 324.70 248.00 C 324.58 255.38 323.94 262.74 322.93 270.05 C 322.30 275.32 322.87 280.67 321.88 285.91 C 320.67 292.37 321.78 298.99 320.49 305.44 C 319.35 311.61 320.60 317.87 320.19 324.09 C 319.81 329.77 320.03 335.47 319.33 341.13 C 319.11 347.55 319.15 353.98 318.52 360.39 C 313.27 360.32 308.02 360.69 302.76 360.69 C 302.47 356.21 302.45 351.69 303.25 347.26 C 304.06 342.15 303.80 336.94 304.62 331.83 C 306.04 322.08 304.98 312.19 305.53 302.39 C 306.66 293.97 307.83 285.53 308.46 277.06 C 308.07 266.13 309.67 255.29 310.80 244.45 C 312.58 234.85 311.51 224.99 313.36 215.41 C 314.17 209.96 313.32 204.41 314.08 198.94 C 314.58 192.61 316.08 186.37 315.81 179.99 C 315.48 174.67 317.32 169.47 319.89 164.90 Z"
     id="path3352" />
  <path
     fill="#fcfcfc"
     d=" M 282.08 184.14 C 283.24 177.72 285.64 171.62 287.65 165.44 C 290.19 167.85 293.49 169.87 294.86 173.23 C 296.32 179.72 294.87 186.40 293.73 192.82 C 292.66 197.78 292.52 202.87 292.35 207.92 C 291.74 219.32 289.20 230.57 289.55 242.01 C 289.28 247.28 288.45 252.55 289.12 257.83 C 289.68 268.09 288.68 278.34 288.59 288.60 C 288.39 293.49 288.28 298.41 287.28 303.23 C 284.95 319.16 284.44 335.33 281.26 351.13 C 280.75 354.89 280.86 358.70 280.77 362.49 C 275.61 363.35 270.38 363.54 265.16 363.44 C 265.97 360.03 266.51 356.52 266.18 353.01 C 265.20 342.27 266.16 331.39 268.61 320.91 C 268.88 315.76 269.03 310.59 270.35 305.56 C 271.69 294.51 273.46 283.51 274.68 272.44 C 277.17 260.79 277.79 248.87 279.03 237.05 C 279.71 229.54 278.81 221.95 280.09 214.49 C 281.08 208.49 280.35 202.39 281.14 196.38 C 281.64 192.31 281.30 188.17 282.08 184.14 Z"
     id="path3354" />
  <path
     fill="#fcfcfc"
     d=" M 257.26 166.86 C 258.78 167.55 260.26 168.32 261.72 169.15 C 261.74 173.12 262.10 177.08 262.13 181.05 C 261.85 186.40 260.70 191.66 260.48 197.01 C 260.06 201.75 260.05 206.55 258.97 211.20 C 255.90 222.86 256.51 235.06 254.76 246.91 C 252.72 256.50 251.02 266.18 250.52 275.98 C 249.97 284.72 249.23 293.46 247.84 302.11 C 247.53 307.50 247.25 312.91 246.18 318.22 C 245.10 323.42 245.66 328.75 245.05 333.99 C 243.65 344.03 243.65 354.24 242.26 364.27 C 238.68 367.02 233.50 365.84 229.23 366.09 C 230.31 353.40 228.35 340.53 230.69 327.94 C 232.19 316.89 233.47 305.83 235.45 294.85 C 236.17 284.53 238.92 274.51 239.64 264.19 C 241.24 256.75 241.31 249.10 242.70 241.62 C 243.80 235.65 243.60 229.43 245.70 223.67 C 247.68 218.83 247.09 213.47 248.60 208.52 C 250.27 203.07 250.59 197.36 251.45 191.75 C 252.50 183.33 251.89 174.01 257.26 166.86 Z"
     id="path3356" />
  <path
     fill="#fcfcfc"
     d=" M 166.84 304.85 C 169.33 300.02 173.58 296.51 177.50 292.89 C 180.83 298.58 181.71 305.24 182.38 311.68 C 182.84 315.82 180.46 319.50 179.61 323.43 C 178.08 330.44 176.44 337.46 173.93 344.20 C 168.26 338.54 163.46 331.87 160.74 324.28 C 159.70 321.37 158.39 317.96 160.01 315.00 C 162.02 311.44 164.92 308.47 166.84 304.85 Z"
     id="path3358" />
  <path
     fill="#fcfcfc"
     d=" M 116.38 432.14 C 121.65 431.16 128.26 431.67 131.85 436.11 C 135.10 441.79 136.40 448.54 135.75 455.05 C 135.68 460.84 134.25 466.95 130.52 471.49 C 123.23 476.12 114.28 476.22 105.95 476.89 C 97.01 478.26 88.09 480.99 78.95 480.24 C 72.80 478.91 66.99 475.82 62.11 471.89 C 57.70 465.71 57.45 457.17 60.32 450.27 C 62.07 445.29 65.30 439.75 70.95 438.78 C 86.13 436.80 101.18 434.00 116.38 432.14 Z"
     id="path3360" />
  <path
     d="m 240.29,635.03 c 16.01479,1.2847 8.47436,9.79001 10.12,22.12 0.34,4.63 -0.16,9.27 -0.66,13.88 -0.28,4.06 -2.44,7.78 -2.13,11.92 0.25,7.63 -0.41,15.32 0.92,22.89 1.01,5.9 -0.89,11.79 -0.12,17.7 0.56,3.85 -0.05,7.72 -0.51,11.56 -0.69,5.75 0.58,11.72 -1.44,17.29 -2.07,11.75 -2.49,23.71 -3.33,35.6 -0.47,4.93 -1.57,9.85 -1.09,14.83 0.44,4.98 -0.18,9.97 -0.38,14.95 -0.25,4.87 -1.18,9.88 -3.87,14.04 -2.21,3.4 -5.73,5.6 -8.95,7.94 -1.26,-8.41 -3.43,-16.98 -1.42,-25.45 0.95,-11.29 2.39,-22.52 3.49,-33.78 2.02,-9.41 0.02,-19 0.77,-28.49 0.01,-11.03 2.33,-22 1.19,-33.03 0.2,-7.68 1.18,-15.33 0.74,-23.02 0.48809,-11.04032 -3.04872,-52.14563 1.77,-57.56 1.41,-1.36 2.96,-2.91 4.9,-3.39 z"
     id="path3362"
     inkscape:connector-curvature="0"
     style="fill:#fcfcfc"
     sodipodi:nodetypes="cccccccccccccccccccc" />
  <path
     fill="#fcfcfc"
     d=" M 210.65 652.52 C 211.65 652.31 212.66 652.11 213.67 651.93 C 213.51 660.38 214.11 668.90 212.50 677.26 C 210.92 686.15 212.45 695.23 211.03 704.13 C 210.23 710.48 211.25 716.94 210.11 723.28 C 208.97 729.16 210.95 735.08 210.12 740.99 C 208.87 749.91 210.87 759.01 208.88 767.86 C 206.83 777.21 208.57 786.83 207.30 796.25 C 206.39 804.78 205.91 813.35 205.26 821.90 C 204.28 826.77 203.61 831.69 203.54 836.67 C 201.34 838.19 199.35 840.06 196.90 841.16 C 195.24 841.87 193.49 840.08 193.52 838.46 C 192.06 826.97 195.04 815.51 194.29 804.00 C 193.75 797.00 195.62 790.08 194.92 783.11 C 193.79 774.11 194.48 765.03 194.40 755.99 C 195.10 748.03 194.89 739.99 196.21 732.09 C 197.96 722.15 197.03 712.01 198.06 702.01 C 198.41 693.66 198.22 685.30 198.25 676.96 C 198.33 671.07 199.23 664.09 204.36 660.39 C 207.27 658.48 209.23 655.63 210.65 652.52 Z"
     id="path3364" />
  <path
     fill="#fcfcfc"
     d=" M 272.53 669.86 C 275.83 676.58 275.68 684.30 278.72 691.09 C 281.32 698.47 279.45 706.55 281.95 713.94 C 282.91 717.70 281.24 721.69 282.60 725.42 C 284.20 729.87 285.21 734.50 286.13 739.14 C 287.00 744.33 286.05 749.56 285.76 754.76 C 285.58 757.50 287.41 759.92 287.33 762.65 C 286.33 765.77 284.15 768.47 283.89 771.83 C 282.02 781.12 282.85 790.60 282.61 800.00 C 282.38 806.43 283.75 812.91 282.35 819.27 C 281.49 823.41 282.55 828.14 279.82 831.74 C 277.91 834.48 276.17 837.86 272.65 838.75 C 270.25 839.38 266.67 840.67 265.18 837.84 C 262.30 833.50 262.00 828.02 263.00 823.04 C 263.67 814.57 263.38 806.00 264.83 797.59 C 266.66 787.17 265.72 776.50 267.52 766.08 C 268.02 762.89 270.85 760.40 270.46 757.03 C 270.28 753.00 270.47 748.96 271.14 744.98 C 272.30 737.38 271.53 729.69 271.76 722.04 C 271.60 716.03 273.18 710.12 272.78 704.11 C 272.65 701.69 272.57 699.26 272.73 696.84 C 273.45 687.83 271.57 678.87 272.53 669.86 Z"
     id="path3366" />
  <path
     d="m 272.7,886.17 c 3.08,-1.14 6.01,-2.77 9.35,-3.04 -5.69,4.57 -11.74,8.7 -17.49,13.18 -6.38,1.62 -13.06,0.52 -19.51,1.68 -9.3,2.3 -18.94,2.95 -28.23,5.36 -5.11,0.14 -10.18,0.91 -15.28,1.02 -4.08,-0.94 -7.42,2.75 -11.49,1.95 -4.66,-0.75 -9.19,-2.16 -13.83,-3.02 -5.32,-1.43 -10.3,-4.55 -13.56,-9.04 7.46,0.05 14.92,0.49 22.39,0.5 5.03,1.14 10.12,0.4 15.2,0.17 8.71,-1.41 17.53,-2.14 26.36,-2.29 2.22,-0.05 4.22,-1.15 6.38,-1.55 8.67287,-0.6465 13.64583,0.37145 24.34,-2.85 5.03,-1.27 10.26,-1.36 15.37,-2.07 z"
     id="path3368"
     inkscape:connector-curvature="0"
     style="fill:#fcfcfc"
     sodipodi:nodetypes="ccccccccccccccc" />
  <path
     d="m 286.16,891.11 c 5.87,-3.79 13.04,-4.67 19.88,-4.68 5.38,-0.04 10.13,2.79 15.07,4.54 5.96,2.15 9.67,7.89 11.23,13.8 2.75,7.43 1.21,15.95 -3.03,22.51 -4.04,5.88 -7.72,12.11 -12.85,17.15 -7.05,7.01 -16.26,12.3 -26.29,13.15 -10.41,2.6 -21.23,0.13 -31.74,2.1 0.23,0.46 -2.52168,-0.28541 -2.28168,0.16459 -1.43,-0.06 -4.69682,0.50952 -6.11681,0.59952 C 243.07356,960.11589 241.67,961.25 235,960.77 c -8.36,-0.65 -16.63,1.17 -25,0.88 -7.01,-0.14 -14.01,0.65 -21.02,0.43 -12.99,-0.97 -26.01,0.69 -38.99,-0.45 -4.10446,-1.27126 -13.44163,3.33368 -19.13288,0.028 -6.46,-3.18 -12.89,-6.96 -17.41,-12.69 -3.31,-6.2 -2.47712,-14.03795 -2.00712,-20.91795 0.79,-7.34 4.16,-14.23 8.54,-20.08 3.80166,-2.42173 8.47625,-8.03805 13.84,-7.52253 2.32,-0.75 4.6,-1.40747 7.07,-1.47747 2.08,0.53 5.66012,-0.92518 7.75012,-0.39518 4.02023,0.19333 9.70091,-0.98355 10.28988,1.16518 6.73,1.23 11.96,5.98 16.6,10.7 2.58,2.48 2.82,6.26 3.14,9.62 0.11,3.44 0.43,7.14 -1.36,10.26 -2.12,4.06 -3.42,8.79 -6.85,12.01 -4.4,3.19 -10.18,3.34 -15.4,3.48 -5.87,-0.62 -11.79,-2.11 -16.92,-5.09 -3.12,-1.72 -3.85,-5.6 -4.45,-8.79 -0.73,-4.94 3.32,-8.88 7.36,-10.9 2.53,-1.49 5.75,-2.02 8.39,-0.49 3.99,1.21 3.16,6.18 4.68,9.29 1.84,-0.13 3.67,-0.26 5.51,-0.38 0.3,-4.59 0.1,-10.15 -4.17,-12.97 -4.35,-2.71 -9.63,-5.95 -14.9,-3.89 -6.48,2.33 -13.47,6.73 -14.89,14.01 -1.15,7.2 0.67,15.42 6.54,20.21 4.58,4.46 11.13,5.28 17.05,6.8 6.19,1.61 12.53,0.09 18.72,-0.67 4.24,-0.76 7.99,1.88 12.09,2.35 10.26,1.19 20.72,0.92 30.84,-1.18 8.41,-1.78 17.06,-1.26 25.55,-2.4 10.98,-1.26 21.9,-3.03 32.91,-4.01 2.49,-0.17 4.9,-0.91 7.08,-2.13 3.54,-1.94 7.56,-2.62 11.48,-3.33 7.16,-1.3 13.47,-5.17 20.47,-7.05 5.18,-1.33 9.77,-4.54 12.86,-8.88 2.25,-5.45 2.87,-12.15 -0.19,-17.41 -2.47,-2.88 -5.5,-5.3 -8.64,-7.4 -5.59,-2.26 -11.75,-0.57 -17.37,0.69 -4.25,0.95 -8.67,3.34 -9.9,7.85 -1.44,5.7 -1.59,12.56 2.57,17.22 1.47,0.56 3.04,0.79 4.58,1.17 1.15,-4.59 -2.62,-8.76 -1.32,-13.33 0.52,-3.09 3.59,-4.78 6.28,-5.7 4.09,-0.86 8.34,-0.92 12.5,-0.61 2.01,2.53 3.83,5.32 5.13,8.29 -0.23,5 -4.52,9.1 -9.13,10.5 -4.4,1.29 -8.9,2.29 -13.15,4.06 -5.09,2.11 -10.68,2.77 -15.63,5.24 -4.13,2.17 -7.65,-2.01 -10.54,-4.39 -2.9,-2.22 -2.79,-6.23 -2.53,-9.51 0.54,-5.74 0.18,-12.16 4.22,-16.8 4.41,-6.71 11.38,-10.89 18.02,-15.07 z"
     id="path3370"
     inkscape:connector-curvature="0"
     style="fill:#fcfcfc"
     sodipodi:nodetypes="cccccccccccccccccccccccccccccccccccccccccccccccccccccccccccccccc" />
  <path
     d="m 242.83,907.31 c 3.81,-1.11 7.62,-2.34 11.63,-2.49 -7.4602,13.49686 1.37742,23.7456 3.21,34.36 -12.12,0.16 -24.23,0.3 -36.34,0.68 -0.01,0.41 -2.63274,0.0171 -2.64274,0.43712 -13.48358,0.63049 -26.54498,1.92357 -39.25726,2.89288 7.11377,-10.49359 6.17862,-18.92228 6.36,-30.12 20.29491,0.37035 38.43348,-4.31889 57.04,-5.76 z"
     id="path3372"
     inkscape:connector-curvature="0"
     style="fill:#fcfcfc"
     sodipodi:nodetypes="cccccccc" />
  <path
     d="m 289.44,966.65 c 3.91,-0.48 7.8,-1.06 11.67,-1.81 1.92,4.15 4.27,8.08 7,11.76 -8.6,1.29 -17.36,0.77 -25.91,2.45 -3.38,0.66 -6.78,-0.54 -10.18,-0.15 -12.31,0.73 -24.62,1.52 -36.95,1.55 -6.01,0.66 -12,1.67 -18.08,1.31 -7.64,-0.33 -4.67205,0.11507 -12.27205,0.78507 -11.22379,1.44253 -25.0582,0.84608 -36.93137,0.72091 -0.27695,0.53042 -12.36025,0.63299 -12.40494,0.52493 -10.33,-0.83 -14.03164,1.44904 -24.31164,1.81904 -6.15,0.28 -12.26,1.17 -18.42,1.29 4.67,-7.3 11.54,-12.71 18.21,-18.08 4.18,1.22 8.64,2.22 12.96,1.03 6.01,-1.52 12.09,0.43 18.16,0.22 10.33,-0.47 20.69,-0.57 31.02,0.02 3.16,0.18 6.33,-0.07 9.47,-0.35 7.86336,-1.13803 15.2051,0.23041 22.54,-0.7 4.61,-0.63 9.24,0.36 13.86,-0.13 7.31,-0.75 14.69,-0.38 22.01,-1.15 9.49,-1.05 19.09,0.25 28.56,-1.11 z"
     id="path3374"
     inkscape:connector-curvature="0"
     style="fill:#fcfcfc"
     sodipodi:nodetypes="cccccccccccccccccccccc" />
  <path
     d="m 291.03,986.62 c 6.87,-0.86 13.6,1.93 20.47,0.55 0.19,4.51 0.39,9.02 0.23,13.54 -8.21,-0.62 -16.47,0.24 -24.59,1.38 -8.6,1.88 -17.42,0.75 -26.13,1.04 -6.53,0.31 -13.08,-1.08 -19.56,0.09 -11.4,1.76 -22.96,0.97 -34.45,1.17 -24.91432,-1.0161 -45.64596,0.5512 -68.5,3.2701 -3.71,1.13 -7.63,0.62 -11.45,0.83 -4.85,0.2 -9.88,0.81 -14.57,-0.82 -2.33,-3.9 -0.79,-8.85 -1.14,-13.18 9.54,-0.43 19.02,-1.72 28.57,-2.04 6.39,-0.17 12.67,-1.8 19.09,-1.5 19.27638,1.82953 37.21693,-0.79547 55.01,-0.35 10.19447,0.85817 20.04559,0.7533 29.46,-1.04 10.99107,0.58722 21.40392,-2.78059 31.79,-1.89 5.53192,0.34526 11.07283,-0.72324 15.77,-1.0501 z"
     id="path3376"
     inkscape:connector-curvature="0"
     style="fill:#fcfcfc"
     sodipodi:nodetypes="ccccccccccccccccc" />
  <text
     xml:space="preserve"
     style="font-style:normal;font-variant:normal;font-weight:normal;font-stretch:normal;font-size:120.93162537px;line-height:125%;font-family:'Bauhaus 93';-inkscape-font-specification:'Bauhaus 93, Normal';text-align:start;letter-spacing:0px;word-spacing:0px;writing-mode:lr-tb;text-anchor:start;fill:#000000;fill-opacity:1;stroke:none;stroke-width:1px;stroke-linecap:butt;stroke-linejoin:miter;stroke-opacity:1"
     x="593.51324"
     y="22.112261"
     id="text3384"
     sodipodi:linespacing="125%"
     transform="matrix(0.72878282,0.67722678,-0.68423299,0.73632237,0,0)"><tspan
       sodipodi:role="line"
       id="tspan3386"
       x="593.51324"
       y="22.112261">PoliHack</tspan></text>
</svg>
